HIERARCHY
ROOT Hips
{
	OFFSET 0.000000 83.214638 0.000000
	CHANNELS 6 Xposition Yposition Zposition Xrotation Yrotation Zrotation
	JOINT Pelvis
	{
		OFFSET 0.000000 0.000000 0.000000
		CHANNELS 3 Xrotation Yrotation Zrotation
		JOINT LeftUpLeg
		{
			OFFSET 8.479700 -4.795502 -0.379100
			CHANNELS 3 Xrotation Yrotation Zrotation
			JOINT LeftLeg
			{
				OFFSET 0.024144 -32.555107 0.112900
				CHANNELS 3 Xrotation Yrotation Zrotation
				JOINT LeftFoot
				{
					OFFSET -0.024144 -32.638630 -3.012600
					CHANNELS 3 Xrotation Yrotation Zrotation
					JOINT LeftToeBase
					{
						OFFSET 0.970200 -13.225400 11.864200
						CHANNELS 3 Xrotation Yrotation Zrotation
						End Site
						{
							OFFSET 0.000000 12.319262 0.000000
						}
					}
					JOINT LFootTongue
					{
						OFFSET 1.142400 -1.059800 6.665200
						CHANNELS 3 Xrotation Yrotation Zrotation
						End Site
						{
							OFFSET 0.000000 12.319262 0.000000
						}
					}
				}
				JOINT LeftPantLeg
				{
					OFFSET 0.918482 -16.533964 -2.284700
					CHANNELS 3 Xrotation Yrotation Zrotation
					End Site
					{
						OFFSET 0.350399 24.744368 0.000000
					}
				}
			}
		}
		JOINT RightUpLeg
		{
			OFFSET -8.479700 -4.795502 -0.379100
			CHANNELS 3 Xrotation Yrotation Zrotation
			JOINT RightLeg
			{
				OFFSET -0.023144 -32.555092 0.112900
				CHANNELS 3 Xrotation Yrotation Zrotation
				JOINT RightFoot
				{
					OFFSET 0.023144 -32.638641 -3.012700
					CHANNELS 3 Xrotation Yrotation Zrotation
					JOINT RightToeBase
					{
						OFFSET -0.970200 -13.225400 11.864200
						CHANNELS 3 Xrotation Yrotation Zrotation
						End Site
						{
							OFFSET 0.000000 12.319244 0.000000
						}
					}
					JOINT RFootTongue
					{
						OFFSET -1.142200 -1.059800 6.665200
						CHANNELS 3 Xrotation Yrotation Zrotation
						End Site
						{
							OFFSET 0.000000 12.319243 0.000000
						}
					}
				}
				JOINT RightPantLeg
				{
					OFFSET -0.919482 -16.533978 -2.284800
					CHANNELS 3 Xrotation Yrotation Zrotation
					End Site
					{
						OFFSET -0.350400 24.744419 0.000000
					}
				}
			}
		}
	}
	JOINT Spine
	{
		OFFSET 0.000000 7.722000 1.166200
		CHANNELS 3 Xrotation Yrotation Zrotation
		JOINT Spine1
		{
			OFFSET 0.000000 12.024101 0.248800
			CHANNELS 3 Xrotation Yrotation Zrotation
			JOINT Spine2
			{
				OFFSET 0.000000 11.502998 -0.491200
				CHANNELS 3 Xrotation Yrotation Zrotation
				JOINT Neck
				{
					OFFSET 0.000000 18.430702 -3.123100
					CHANNELS 3 Xrotation Yrotation Zrotation
					JOINT Head
					{
						OFFSET 0.000000 9.051102 1.034000
						CHANNELS 3 Xrotation Yrotation Zrotation
						JOINT HairB
						{
							OFFSET 0.208400 24.786102 24.822300
							CHANNELS 3 Xrotation Yrotation Zrotation
							End Site
							{
								OFFSET 0.000000 32.263779 0.000000
							}
						}
						JOINT HairA
						{
							OFFSET -7.081100 24.428299 23.196600
							CHANNELS 3 Xrotation Yrotation Zrotation
							End Site
							{
								OFFSET 0.000000 32.263779 0.000000
							}
						}
						JOINT Hat
						{
							OFFSET 16.728800 15.048294 -15.439601
							CHANNELS 3 Xrotation Yrotation Zrotation
							End Site
							{
								OFFSET 0.000000 32.263779 0.000000
							}
						}
					}
				}
				JOINT LeftShoulder
				{
					OFFSET 6.197800 13.665199 -4.064700
					CHANNELS 3 Xrotation Yrotation Zrotation
					JOINT LeftArm
					{
						OFFSET 7.778100 -0.187103 -1.709300
						CHANNELS 3 Xrotation Yrotation Zrotation
						JOINT LeftForeArm
						{
							OFFSET 22.049376 0.000000 0.000000
							CHANNELS 3 Xrotation Yrotation Zrotation
							JOINT LeftHand
							{
								OFFSET 23.009392 0.000000 0.000000
								CHANNELS 3 Xrotation Yrotation Zrotation
								JOINT LeftHandThumb1
								{
									OFFSET 3.507191 -2.063065 3.133727
									CHANNELS 3 Xrotation Yrotation Zrotation
									JOINT LeftHandThumb2
									{
										OFFSET 3.101337 -1.790558 1.790558
										CHANNELS 3 Xrotation Yrotation Zrotation
										JOINT LeftHandThumb3
										{
											OFFSET 3.058640 -1.765907 1.765906
											CHANNELS 3 Xrotation Yrotation Zrotation
											End Site
											{
												OFFSET -0.415260 3.926476 -0.049563
											}
										}
									}
								}
								JOINT LeftHandIndex1
								{
									OFFSET 11.334419 -0.901459 3.706815
									CHANNELS 3 Xrotation Yrotation Zrotation
									JOINT LeftHandIndex2
									{
										OFFSET 3.283112 0.000000 0.000000
										CHANNELS 3 Xrotation Yrotation Zrotation
										JOINT LeftHandIndex3
										{
											OFFSET 3.323853 0.000000 0.000000
											CHANNELS 3 Xrotation Yrotation Zrotation
											End Site
											{
												OFFSET -1.135597 3.097809 0.402452
											}
										}
									}
								}
								JOINT LeftHandMiddle1
								{
									OFFSET 11.335861 0.000000 0.000000
									CHANNELS 3 Xrotation Yrotation Zrotation
									JOINT LeftHandMiddle2
									{
										OFFSET 3.410492 0.000000 0.000000
										CHANNELS 3 Xrotation Yrotation Zrotation
										JOINT LeftHandMiddle3
										{
											OFFSET 3.312172 0.000000 0.000000
											CHANNELS 3 Xrotation Yrotation Zrotation
											End Site
											{
												OFFSET -1.150200 3.080154 0.400270
											}
										}
									}
								}
								JOINT LeftHandRing1
								{
									OFFSET 11.514786 -0.013176 -3.003090
									CHANNELS 3 Xrotation Yrotation Zrotation
									JOINT LeftHandRing2
									{
										OFFSET 3.053307 0.000000 0.000000
										CHANNELS 3 Xrotation Yrotation Zrotation
										JOINT LeftHandRing3
										{
											OFFSET 3.295807 0.000000 0.000000
											CHANNELS 3 Xrotation Yrotation Zrotation
											End Site
											{
												OFFSET -1.281006 3.013344 0.375733
											}
										}
									}
								}
								JOINT LeftHandPinky1
								{
									OFFSET 10.518692 -0.960396 -5.730441
									CHANNELS 3 Xrotation Yrotation Zrotation
									JOINT LeftHandPinky2
									{
										OFFSET 2.861649 0.000000 0.000000
										CHANNELS 3 Xrotation Yrotation Zrotation
										JOINT LeftHandPinky3
										{
											OFFSET 2.863380 0.000000 0.000000
											CHANNELS 3 Xrotation Yrotation Zrotation
											End Site
											{
												OFFSET -0.843597 2.711159 0.369971
											}
										}
									}
								}
							}
							JOINT LSleeve
							{
								OFFSET 6.676277 -0.344902 -1.011730
								CHANNELS 3 Xrotation Yrotation Zrotation
								End Site
								{
									OFFSET 0.000000 14.885353 0.000000
								}
							}
						}
					}
				}
				JOINT RightShoulder
				{
					OFFSET -6.197800 13.665199 -4.064700
					CHANNELS 3 Xrotation Yrotation Zrotation
					JOINT RightArm
					{
						OFFSET -7.778100 -0.187103 -1.709300
						CHANNELS 3 Xrotation Yrotation Zrotation
						JOINT RightForeArm
						{
							OFFSET -22.049376 0.000000 0.000000
							CHANNELS 3 Xrotation Yrotation Zrotation
							JOINT RightHand
							{
								OFFSET -23.009392 0.000000 0.000000
								CHANNELS 3 Xrotation Yrotation Zrotation
								JOINT RightHandThumb1
								{
									OFFSET -3.507191 -2.063065 3.133727
									CHANNELS 3 Xrotation Yrotation Zrotation
									JOINT RightHandThumb2
									{
										OFFSET -3.101337 -1.790558 1.790558
										CHANNELS 3 Xrotation Yrotation Zrotation
										JOINT RightHandThumb3
										{
											OFFSET -3.058640 -1.765907 1.765906
											CHANNELS 3 Xrotation Yrotation Zrotation
											End Site
											{
												OFFSET 0.415260 3.926476 -0.049563
											}
										}
									}
								}
								JOINT RightHandIndex1
								{
									OFFSET -11.334419 -0.901459 3.706815
									CHANNELS 3 Xrotation Yrotation Zrotation
									JOINT RightHandIndex2
									{
										OFFSET -3.283112 0.000000 0.000000
										CHANNELS 3 Xrotation Yrotation Zrotation
										JOINT RightHandIndex3
										{
											OFFSET -3.323853 0.000000 0.000000
											CHANNELS 3 Xrotation Yrotation Zrotation
											End Site
											{
												OFFSET 1.135597 3.097809 0.402452
											}
										}
									}
								}
								JOINT RightHandMiddle1
								{
									OFFSET -11.335861 0.000000 0.000000
									CHANNELS 3 Xrotation Yrotation Zrotation
									JOINT RightHandMiddle2
									{
										OFFSET -3.410492 0.000000 0.000000
										CHANNELS 3 Xrotation Yrotation Zrotation
										JOINT RightHandMiddle3
										{
											OFFSET -3.312172 0.000000 0.000000
											CHANNELS 3 Xrotation Yrotation Zrotation
											End Site
											{
												OFFSET 1.150200 3.080154 0.400270
											}
										}
									}
								}
								JOINT RightHandRing1
								{
									OFFSET -11.514786 -0.013176 -3.003090
									CHANNELS 3 Xrotation Yrotation Zrotation
									JOINT RightHandRing2
									{
										OFFSET -3.053307 0.000000 0.000000
										CHANNELS 3 Xrotation Yrotation Zrotation
										JOINT RightHandRing3
										{
											OFFSET -3.295807 0.000000 0.000000
											CHANNELS 3 Xrotation Yrotation Zrotation
											End Site
											{
												OFFSET 1.281006 3.013344 0.375733
											}
										}
									}
								}
								JOINT RightHandPinky1
								{
									OFFSET -10.518692 -0.960396 -5.730441
									CHANNELS 3 Xrotation Yrotation Zrotation
									JOINT RightHandPinky2
									{
										OFFSET -2.861649 0.000000 0.000000
										CHANNELS 3 Xrotation Yrotation Zrotation
										JOINT RightHandPinky3
										{
											OFFSET -2.863380 0.000000 0.000000
											CHANNELS 3 Xrotation Yrotation Zrotation
											End Site
											{
												OFFSET 0.843597 2.711159 0.369971
											}
										}
									}
								}
							}
							JOINT RSleeve
							{
								OFFSET -6.676277 -0.344902 -1.011730
								CHANNELS 3 Xrotation Yrotation Zrotation
								End Site
								{
									OFFSET 0.000000 14.885353 0.000000
								}
							}
						}
					}
				}
				JOINT Backpack
				{
					OFFSET 0.000000 -2.471497 36.677502
					CHANNELS 3 Xrotation Yrotation Zrotation
					End Site
					{
						OFFSET 0.000000 20.427315 0.000000
					}
				}
				JOINT Hood
				{
					OFFSET 0.000000 18.754097 -10.431000
					CHANNELS 3 Xrotation Yrotation Zrotation
					JOINT Hood1
					{
						OFFSET 0.000000 -5.011002 -7.685901
						CHANNELS 3 Xrotation Yrotation Zrotation
						End Site
						{
							OFFSET 0.000000 9.175140 0.000000
						}
					}
				}
				JOINT LHoodieString
				{
					OFFSET 5.250500 16.397697 3.089900
					CHANNELS 3 Xrotation Yrotation Zrotation
					JOINT LHoodieString1
					{
						OFFSET 0.257700 -6.364304 3.694600
						CHANNELS 3 Xrotation Yrotation Zrotation
						JOINT LHoodieString2
						{
							OFFSET 0.000000 -9.643799 2.679100
							CHANNELS 3 Xrotation Yrotation Zrotation
							End Site
							{
								OFFSET 0.000000 10.009018 0.000000
							}
						}
					}
				}
				JOINT RHoodieString
				{
					OFFSET -5.250500 16.397697 3.089900
					CHANNELS 3 Xrotation Yrotation Zrotation
					JOINT RHoodieString1
					{
						OFFSET -0.257700 -6.364304 3.694600
						CHANNELS 3 Xrotation Yrotation Zrotation
						JOINT RHoodieString2
						{
							OFFSET 0.000000 -9.643799 2.679100
							CHANNELS 3 Xrotation Yrotation Zrotation
							End Site
							{
								OFFSET 0.000000 10.009018 0.000000
							}
						}
					}
				}
			}
			JOINT LBackpack_Strap
			{
				OFFSET 15.223200 -7.719803 -6.610900
				CHANNELS 3 Xrotation Yrotation Zrotation
				End Site
				{
					OFFSET 0.000000 16.040596 0.000000
				}
			}
			JOINT RBackpack_Strap
			{
				OFFSET -15.223000 -7.719803 -6.610900
				CHANNELS 3 Xrotation Yrotation Zrotation
				End Site
				{
					OFFSET 0.000000 16.040596 0.000000
				}
			}
		}
	}
	JOINT BoyFacialAnim_Joint
	{
		OFFSET 1.000000 -82.208099 -1.550900
		CHANNELS 3 Xrotation Yrotation Zrotation
		End Site
		{
			OFFSET 0.000000 30.012791 0.000000
		}
	}
}
MOTION
Frames: 5
Frame Time: 0.033333
-2.350634 80.264877 1.436457 0.976654 -23.647870 -1.362282 -0.000000 0.000001 -0.000000 -11.861184 0.468566 -4.080017 32.313120 10.344283 4.587680 -16.824356 7.534949 -1.346039 -0.000000 -0.000001 0.000000 -0.000000 -0.000001 -0.000000 -0.000002 0.000000 -0.000000 -10.875160 -16.556899 6.109044 28.456757 9.480164 -3.364288 -16.300906 3.980928 -13.138455 0.000000 0.000000 0.000000 0.000000 0.000000 0.000000 -0.000002 -0.000001 0.000000 -5.553679 25.949149 10.926016 4.220426 3.950582 -8.490484 4.749213 3.992887 -8.204203 2.987698 -2.928618 4.057882 6.667905 -11.048125 8.304520 0.000001 0.000000 0.000000 0.000001 0.000000 0.000000 0.000001 0.000000 0.000000 0.327252 0.857188 7.499487 15.352254 6.330878 -25.965787 -0.000007 -103.369387 -0.000004 20.516954 -47.492505 25.634337 -1.538049 1.415268 6.088886 4.701763 17.342962 1.440011 0.000001 -0.000001 -0.000002 2.166094 5.017512 -46.678565 2.167116 5.018488 -46.690309 -0.000002 -0.000003 -0.000002 2.164679 5.016193 -46.662462 2.168528 5.019817 -46.706425 0.000000 0.000001 0.000000 2.166095 5.017499 -46.678565 2.167105 5.018467 -46.690302 0.000001 0.000001 0.000002 5.129548 7.804348 -46.499214 2.185684 0.947738 -47.046589 -0.000001 -0.000001 0.000003 -0.000001 -0.000001 0.000001 0.652812 1.559987 2.089261 -24.252347 16.887767 68.982281 0.000004 112.051774 -0.000002 37.123229 -9.967024 43.711073 -1.835196 1.557290 -5.791597 5.979278 -24.039752 -1.209939 0.000001 0.000000 0.000001 0.109635 -1.232340 10.166872 0.109632 -1.232322 10.166871 -0.000001 0.000000 0.000005 0.109632 -1.232339 10.166887 0.109639 -1.232332 10.166866 0.000003 0.000006 0.000004 0.109635 -1.232330 10.166887 0.109631 -1.232331 10.166865 0.000001 0.000001 0.000001 0.109632 -1.232334 10.166880 0.109643 -1.232321 10.166861 0.000002 0.000002 0.000001 -0.000001 0.000000 -0.000002 -0.000000 0.000001 -0.000000 -0.000000 0.000001 -0.000000 -0.000000 0.000001 -0.000000 -0.000000 0.000001 -0.000000 -0.000000 0.000001 0.000001 -0.000000 -0.000000 -0.000000 -0.000000 0.000001 -0.000000 -0.000000 0.000001 0.000001 -0.000000 -0.000000 -0.000000 -0.000000 0.000000 0.000000 -0.000000 0.000000 0.000000 -0.000000 0.000001 -0.000000 
-2.312084 80.240585 1.137460 2.316181 -25.091972 1.343691 -0.000000 0.000002 -0.000000 -9.862977 1.140978 -4.972207 27.204857 10.097021 1.375850 -18.478546 7.533277 1.913111 0.000000 0.000000 0.000000 0.000000 0.000000 -0.000000 -0.000002 -0.000002 0.000000 -19.917457 -15.203707 2.768485 37.892185 9.356334 -5.489575 -10.236365 4.990241 -7.410464 0.000000 0.000002 -0.000000 0.000000 0.000002 -0.000000 -0.000000 0.000001 -0.000000 -5.885518 25.729831 11.018853 4.668288 3.770794 -10.047020 5.276398 3.841543 -9.734971 2.826790 -2.552326 3.939365 6.357953 -9.443906 8.899214 -0.000000 0.000000 -0.000000 -0.000000 0.000000 -0.000000 -0.000000 0.000000 -0.000000 0.452093 0.628425 6.086877 6.437502 11.824056 -25.813501 0.000076 -99.886954 0.000088 20.589064 -47.891159 25.562678 -1.533717 1.691918 6.005899 4.701760 17.342955 1.440009 -0.000001 0.000001 -0.000001 2.151601 5.003879 -46.512533 2.152203 5.004455 -46.519558 -0.000002 -0.000003 -0.000004 2.150191 5.002551 -46.496424 2.153600 5.005759 -46.535653 -0.000001 -0.000002 -0.000002 2.151601 5.003863 -46.512540 2.152196 5.004438 -46.519568 -0.000003 0.000003 -0.000003 5.106826 7.799266 -46.331772 2.170718 0.933752 -46.876879 -0.000001 -0.000000 0.000001 -0.000001 0.000000 0.000000 0.421123 0.305506 0.829006 -25.730933 26.372269 69.238598 0.000053 111.984175 -0.000034 36.524863 -8.208755 44.950523 -1.854519 4.089524 -5.399454 5.706464 -20.756424 -1.024758 0.000000 -0.000001 -0.000001 0.109635 -1.232337 10.166872 0.109631 -1.232320 10.166873 -0.000001 -0.000002 0.000005 0.109629 -1.232336 10.166882 0.109641 -1.232330 10.166866 0.000001 0.000001 0.000003 0.109631 -1.232332 10.166879 0.109634 -1.232328 10.166865 0.000000 0.000000 0.000002 0.109630 -1.232328 10.166873 0.109638 -1.232323 10.166863 -0.000001 -0.000001 -0.000002 0.000002 -0.000002 -0.000001 0.000001 -0.000000 -0.000001 0.000001 -0.000000 -0.000001 0.000001 -0.000000 -0.000001 0.000001 -0.000000 -0.000001 0.000001 -0.000000 -0.000001 0.000000 -0.000000 0.000000 0.000001 -0.000000 -0.000001 0.000001 -0.000000 -0.000001 0.000000 -0.000000 0.000000 0.000000 0.000000 -0.000000 0.000000 0.000000 -0.000000 -0.000000 0.000002 -0.000000 
-2.109016 80.081787 0.752882 3.002873 -24.380225 3.689877 -0.000000 -0.000000 -0.000000 -9.107554 0.482192 -6.212460 24.341474 9.865427 -0.742392 -18.489225 7.045795 2.921843 0.000000 -0.000000 -0.000000 0.000000 -0.000000 -0.000000 -0.000001 0.000001 0.000000 -26.739419 -12.827215 -0.128532 44.623180 9.008934 -6.202736 -5.211488 5.389808 -6.314200 0.000000 -0.000001 -0.000000 0.000000 -0.000001 -0.000000 -0.000000 0.000000 -0.000000 -5.125632 24.061168 10.901727 4.717002 3.412076 -11.453603 5.364688 3.484017 -11.163376 2.808921 -2.247956 3.880780 6.187600 -8.105946 9.280073 -0.000000 -0.000000 0.000000 -0.000000 -0.000000 0.000000 -0.000000 -0.000000 0.000000 0.755499 -0.054240 3.846538 -3.828041 15.296239 -26.177984 0.000664 -96.677072 0.000668 21.042962 -48.302258 25.791148 -1.530982 1.785250 5.954474 4.701763 17.342959 1.440012 0.000000 -0.000002 -0.000001 2.030996 4.887075 -45.113642 2.030906 4.886999 -45.112720 0.000001 -0.000002 -0.000006 2.029615 4.885713 -45.097530 2.032282 4.888339 -45.128812 0.000001 -0.000001 -0.000000 2.030989 4.887055 -45.113642 2.030909 4.887011 -45.112716 0.000000 -0.000001 -0.000004 4.915917 7.753603 -44.920973 2.049134 0.817100 -45.478651 0.000001 -0.000001 0.000001 -0.000003 0.000002 0.000001 0.194640 -1.298729 -0.144496 -23.737067 34.514749 65.749839 0.000039 112.736644 -0.000044 35.950462 -8.391894 42.799051 -1.889902 6.539836 -5.017620 5.489489 -18.193011 -0.871317 -0.000000 0.000004 0.000001 0.109636 -1.232338 10.166876 0.109633 -1.232325 10.166873 -0.000000 -0.000001 -0.000000 0.109631 -1.232334 10.166885 0.109641 -1.232329 10.166868 -0.000001 -0.000003 0.000001 0.109632 -1.232332 10.166879 0.109634 -1.232330 10.166866 0.000002 0.000002 -0.000001 0.109631 -1.232332 10.166880 0.109637 -1.232327 10.166865 -0.000001 -0.000002 -0.000002 -0.000000 -0.000001 -0.000006 0.000001 -0.000001 -0.000000 0.000001 -0.000001 -0.000000 0.000001 -0.000001 -0.000000 0.000001 -0.000001 -0.000000 0.000001 -0.000001 -0.000000 -0.000001 0.000000 0.000000 0.000001 -0.000001 -0.000000 0.000001 -0.000001 -0.000000 -0.000001 0.000000 0.000000 0.000000 -0.000000 -0.000000 0.000000 -0.000000 -0.000000 -0.000000 -0.000000 -0.000000 
-1.935643 79.961922 0.289883 2.991475 -21.344199 5.568181 0.000000 -0.000002 0.000000 -9.355140 -0.982771 -7.060690 23.451349 9.641802 -2.856332 -17.387146 5.560397 2.953212 0.000000 0.000000 0.000000 0.000000 0.000000 0.000000 -0.000001 0.000001 -0.000000 -32.170850 -10.929849 -3.965849 49.159484 9.324776 -8.432056 -1.178949 1.757258 -2.260009 0.000001 0.000002 -0.000000 0.000001 0.000002 -0.000000 0.000002 -0.000003 -0.000000 -3.815087 21.130708 9.959498 4.617334 2.899602 -12.444504 5.233059 2.956782 -12.201269 2.805162 -2.110344 4.108739 5.840360 -7.280684 9.732508 0.000001 0.000000 -0.000000 0.000001 0.000000 -0.000000 0.000001 0.000000 -0.000000 1.195749 -1.201081 0.962268 -13.888419 16.424179 -27.106927 0.002474 -94.223710 0.002504 21.309465 -48.751353 25.951521 -1.528930 1.713225 5.908996 4.701764 17.342959 1.440008 0.000003 0.000000 0.000003 1.772684 4.616337 -41.996026 1.772362 4.615955 -41.992037 -0.000000 -0.000003 -0.000002 1.771380 4.614888 -41.979955 1.773652 4.617403 -42.008133 0.000002 -0.000001 -0.000002 1.772675 4.616310 -41.996033 1.772350 4.615958 -41.992037 -0.000004 0.000001 -0.000004 4.494773 7.635180 -41.776241 1.789679 0.547750 -42.376304 -0.000000 0.000001 -0.000000 -0.000003 0.000002 0.000002 -0.005849 -2.914636 -0.741310 -17.739203 39.094524 59.008518 0.000119 113.977607 -0.000118 36.009147 -9.639408 39.193541 -1.940961 8.947634 -4.638708 5.317552 -16.196049 -0.746223 -0.000001 -0.000002 0.000001 0.109631 -1.232346 10.166874 0.109630 -1.232325 10.166872 -0.000001 -0.000007 0.000004 0.109627 -1.232337 10.166880 0.109638 -1.232334 10.166864 0.000003 0.000000 -0.000000 0.109630 -1.232337 10.166883 0.109635 -1.232325 10.166862 -0.000003 -0.000001 0.000004 0.109629 -1.232333 10.166878 0.109637 -1.232322 10.166861 -0.000000 -0.000001 0.000000 0.000001 0.000000 0.000002 -0.000000 -0.000000 0.000000 -0.000000 -0.000000 0.000000 -0.000000 -0.000000 0.000000 -0.000000 -0.000000 0.000000 -0.000000 -0.000000 0.000000 -0.000000 -0.000000 -0.000001 -0.000000 -0.000000 0.000000 -0.000000 -0.000000 0.000000 -0.000000 -0.000000 -0.000001 0.000000 -0.000000 -0.000000 0.000000 -0.000000 -0.000000 0.000000 -0.000002 0.000000 
-1.916800 79.862732 -0.144129 2.672060 -16.548374 6.978996 0.000000 -0.000000 0.000000 -9.930024 -1.667905 -7.555877 23.492941 9.622248 -4.445910 -16.313309 1.812010 3.236514 0.000000 -0.000001 0.000000 0.000000 -0.000001 0.000000 0.000001 -0.000000 0.000000 -34.323289 -8.633789 -7.882311 51.056842 5.968601 -9.976154 -4.358599 0.471059 -4.776860 -0.000002 0.000003 0.000000 -0.000002 0.000003 0.000000 0.000001 0.000002 -0.000000 -2.984095 17.435128 8.006931 4.586468 2.281713 -12.654647 5.095123 2.333444 -12.460134 2.722052 -2.143983 4.586575 5.658954 -6.922987 10.174423 0.000000 0.000000 -0.000000 0.000000 0.000000 -0.000000 0.000000 0.000000 -0.000000 1.662691 -2.656865 -2.254200 -22.165817 15.353796 -28.856436 -0.004273 -92.722400 -0.004287 20.793869 -49.343831 25.517442 -1.525893 1.473304 5.835045 4.701760 17.342959 1.440010 -0.000000 0.000002 -0.000001 1.393434 4.157920 -37.041420 1.393251 4.157664 -37.038897 0.000000 -0.000001 -0.000004 1.392257 4.156368 -37.025369 1.394410 4.159203 -37.054972 -0.000000 -0.000000 -0.000001 1.393432 4.157906 -37.041424 1.393244 4.157665 -37.038900 -0.000000 -0.000003 -0.000003 3.840364 7.400143 -36.777522 1.408494 0.092078 -37.450033 0.000001 -0.000001 -0.000000 0.000003 0.000001 0.000003 -0.139626 -3.983499 -0.814625 -9.117982 38.413530 51.188016 -0.000006 114.997832 -0.000002 36.780466 -10.695199 36.333823 -1.987463 10.663314 -4.365682 5.211480 -14.980362 -0.667616 0.000000 0.000001 -0.000000 0.109634 -1.232336 10.166874 0.109633 -1.232324 10.166873 -0.000003 -0.000001 0.000005 0.109630 -1.232330 10.166882 0.109642 -1.232327 10.166859 0.000002 0.000001 0.000002 0.109634 -1.232326 10.166879 0.109634 -1.232330 10.166864 -0.000000 0.000001 0.000001 0.109632 -1.232325 10.166874 0.109640 -1.232319 10.166861 -0.000002 -0.000001 -0.000002 -0.000002 -0.000000 -0.000002 -0.000000 -0.000000 0.000000 -0.000000 -0.000000 0.000000 -0.000000 -0.000000 0.000000 -0.000000 -0.000000 0.000000 -0.000000 -0.000000 0.000000 -0.000000 0.000000 0.000000 -0.000000 -0.000000 0.000000 -0.000000 -0.000000 0.000000 -0.000000 0.000000 0.000000 -0.000000 -0.000000 -0.000000 -0.000000 -0.000000 -0.000000 0.000000 -0.000000 0.000000 
